<?xml version="1.0" encoding="utf-8"?>
<!-- Generator: Adobe Illustrator 22.0.1, SVG Export Plug-In . SVG Version: 6.00 Build 0)  -->
<svg version="1.1" id="Layer_1" xmlns="http://www.w3.org/2000/svg" xmlns:xlink="http://www.w3.org/1999/xlink" x="0px" y="0px"
	 viewBox="0 0 512 512" style="enable-background:new 0 0 512 512;" xml:space="preserve">
<style type="text/css">
	.st0{fill:#212121;}
</style>
<title>zip-glyph</title>
<path class="st0" d="M458.6,161.1L282.7,8.1c-2.3-1.8-5.1-2.8-8-2.9H68.8c-3,0.1-6.1,0.6-8.9,1.7L52,13.7c-1.2,2.4-1.8,5.1-1.9,7.8
	v469c0.1,2.7,0.8,5.4,1.9,7.8l7.8,6.8c2.9,1,5.9,1.6,8.9,1.7h374.4c3.1-0.1,6.1-0.7,9-1.7l7.8-6.8c1.2-2.4,1.8-5.1,1.9-7.8V168.1
	C461.7,165.4,460.5,163,458.6,161.1z M450,492.9l-4.1,3.6c-0.9,0.2-1.8,0.3-2.8,0.4H68.8c-0.9-0.1-1.8-0.2-2.7-0.4l-4.1-3.6
	c-0.2-0.8-0.4-1.6-0.5-2.4v-469c0.1-0.8,0.2-1.6,0.5-2.4l4.1-3.6c0.9-0.2,1.8-0.3,2.7-0.4h201v157.1h180.7v318.3
	C450.4,491.3,450.2,492.1,450,492.9z"/>
<path class="st0" d="M443.2,512H68.8c-3.9-0.1-7.7-0.8-11.4-2.1c-0.6-0.2-1.2-0.6-1.8-1.1l-7.9-6.8c-0.5-0.4-0.9-1-1.2-1.5
	c-1.5-3.1-2.3-6.5-2.4-9.9v-469c0.1-3.4,0.9-6.8,2.4-9.9c0.3-0.6,0.7-1.2,1.2-1.6l7.8-6.8c0.5-0.5,1.2-0.8,1.8-1.1
	c3.7-1.3,7.5-2,11.4-2.1h205.9c4.4,0.1,8.7,1.7,12.2,4.4l175.9,153.1c3,2.7,4.9,6.6,5.1,10.6v322.4c-0.1,3.4-1,6.8-2.4,9.9
	c-0.3,0.6-0.7,1.1-1.3,1.6l-7.9,6.8c-0.5,0.5-1.1,0.8-1.8,1.1C450.9,511.2,447.1,511.9,443.2,512z M67.5,490.4l1.5,1.3h374l1.5-1.3
	V177.4H269.8c-1.6,0-3.1-0.5-4.2-1.5c-1.1-0.9-1.7-2.3-1.8-3.7V20.4H69l-1.5,1.3L67.5,490.4z M275.8,167h174.7
	c2.2-0.1,4.3,1.1,5.4,2.9v-1.9c-0.2-1.2-0.7-2.3-1.6-3.2l-175.9-153c-1.1-0.7-2.4-1.2-3.7-1.3h-2.2c0.6,0.3,1.1,0.6,1.6,1
	c1.1,0.9,1.7,2.3,1.8,3.7L275.8,167z"/>
<path class="st0" d="M316.2,324.8h-8.7v26.6h8.7c11.8,0,17.6-4.5,17.6-13.5C333.9,329.2,328,324.8,316.2,324.8z"/>
<path class="st0" d="M448,275.9H64c-5.9,0-10.8,4.2-10.8,9.3v135.1c0,5.2,4.8,9.3,10.8,9.3h384c5.9,0,10.8-4.2,10.8-9.3V285.2
	C458.7,280,453.9,275.9,448,275.9z M233.9,395.4h-79v-11.1l50.3-58.6h-46.6v-15.7h75.3v10.8l-49.2,59h49.3L233.9,395.4z M275,325
	h-8.2v55.6h8.2v14.9h-38.5v-14.9h8.2V325h-8.2v-14.9H275V325z M346.5,358.1c-7.1,5.2-16.6,7.9-28.5,7.9h-10.5v29.4h-22.1v-85.3H320
	c24.7,0,37.1,9.1,37.1,27.2C357.1,345.9,353.6,352.8,346.5,358.1L346.5,358.1z"/>
</svg>
