<?xml version="1.0" encoding="utf-8"?>
<!-- Generator: Adobe Illustrator 22.0.1, SVG Export Plug-In . SVG Version: 6.00 Build 0)  -->
<svg version="1.1" id="Layer_1" xmlns="http://www.w3.org/2000/svg" xmlns:xlink="http://www.w3.org/1999/xlink" x="0px" y="0px"
	 viewBox="0 0 2045 2066.1" style="enable-background:new 0 0 2045 2066.1;" xml:space="preserve">
<style type="text/css">
	.st0{fill:#3185B8;}
	.st1{fill:#61A5CE;}
	.st2{fill:#EAE9E6;}
</style>
<path class="st0" d="M2039,153.1C2024.3,141,1908.6,79,1908.6,79l-123.4,71.7l-0.1,0L1908.6,79L1785.2,5.5l0,145.2l-128.7-72
	c0,0-105.3,61.5-156.4,91c-64.3,37.1-222.1,131.1-222.1,131.1v138.7l-130,338.7V962l-91.2,53.2l-36.3,95L764.7,446.6l0-145.5
	L254.9,5.3L0.3,152.7l-0.3,0v150l158.8,382.5l96.5,56.8l0.1,174.4L638,1845.7l382.4,218.8v1.3l381.9-221l638.1-1545.2L2039,153.1"/>
<path class="st0" d="M1020.7,2064.7l-382.7-219L255.4,916.4L255.3,742l-96.5-56.8L0,302.6v-150l125.7,73.3v147.6l129.9,75.4l0-148.5
	l253.8,146.8l12.2,145.4l368.9,957.6l256.4,149.3v292.9l-126.6-74.5L1020.7,2064.7"/>
<path class="st1" d="M764.7,446.6l255.8,663.6l-0.5,365.6l-129.7,73.7L521.6,591.6l-12.2-144.3l255.4-146.2L764.7,446.6
	 M125.7,225.9v147.6l129.9-73.1L125.7,225.9"/>
<path class="st2" d="M255.6,448.9l0-148.5l-129.9,73.1L255.6,448.9"/>
<path class="st0" d="M1020,1475.8l127.9,73.2l142.4-357.5l109.6,65.2V914.1l35-82.7l93.4,54.7V741.2l-127.1-73.8l127.8-74.2
	l-125.7-72.4l-0.3-147.2L1278,300.7v138.7l-130,338.7V962l-91.2,53.2l-36.3,95L1020,1475.8"/>
<path class="st1" d="M1018.2,1625.4l128.7,74.2l-0.6,292.9l256-147.7l638.1-1545.2l-1.4-146.5l-382.5,220.5v294.1l-128.3,73.5V886
	l-93.4-54.7l-35,82.7V1256l-177.7,104.5l-74.4,188.5L1018.2,1625.4"/>
<path class="st2" d="M508.5,594.2l128.3-74.5v147.5L508.5,594.2"/>
<path class="st0" d="M636.8,667.2l127.3,71.9V594.2l-127.3-74.5V667.2"/>
<path class="st1" d="M382.1,960v148.6l128.5-73.9L382.1,960"/>
<path class="st2" d="M638.9,1109.3l-128.9,75.1l-127.8-75.8l128.5-73.9L638.9,1109.3"/>
<path class="st1" d="M637.1,1550.6v149.8l129.2-74.7L637.1,1550.6"/>
<path class="st2" d="M890.8,1844.1l130.1,75.6l0.5-152.2L890.8,1844.1"/>
<path class="st1" d="M1020.4,2065.8l0.5-146.1l125.4,72.8L1020.4,2065.8"/>
<path class="st2" d="M1020,1475.8l-129.7,73.7l127.9,75.9l129.6-76.5L1020,1475.8"/>
<path class="st0" d="M1656.5,667.7V373.5l-126.6-72.1V448l-126.6,72.7L1656.5,667.7"/>
<path class="st2" d="M1401.1,667.4l127.8-74.2l127.6,74.5l-128.3,73.5L1401.1,667.4"/>
<path class="st1" d="M1403.3,520.8l126.6-72.7V301.5l-126.9,72.1L1403.3,520.8"/>
<path class="st0" d="M1785.2,150.7l0-145.2L1908.6,79L1785.2,150.7"/>
<path class="st2" d="M2039,153.1l-382.5,220.5l-126.6-72.1l-126.9,72.1L1278,300.7c0,0,157.8-93.9,222.1-131.1
	c51.1-29.5,156.4-91,156.4-91l128.8,72.1L1908.6,79C1908.6,79,2024.3,141,2039,153.1C2004.2,173.4,2039,153.1,2039,153.1
	 M764.7,301.1L509.3,447.3L0.2,152.7L254.9,5.3L764.7,301.1"/>
<path class="st0" d="M1910.6,370.2V227.1l-124.4,71.8L1910.6,370.2 M1533.4,1035.4l123.8-71v142.5L1533.4,1035.4"/>
<path class="st2" d="M1274.6,1624.4v147.6l129-74.6L1274.6,1624.4"/>
<path class="st0" d="M1404.4,1697.4l-1.6-146.4l-128.2,73.4L1404.4,1697.4"/>
</svg>
